<svg width="178" height="50" viewBox="0 0 178 50" fill="none" xmlns="http://www.w3.org/2000/svg">
<path d="M21.9741 22.3438C21.9741 23.875 19.264 25.1875 17.5508 25.1875C17.5508 20.1652 17.5508 15.1473 17.5508 10.125C17.5508 8.59375 20.2608 7.28125 21.9741 7.28125C21.9741 12.2991 21.9741 17.3214 21.9741 22.3438Z" fill="#55AE47"/>
<mask id="mask0_8123_9342" style="mask-type:luminance" maskUnits="userSpaceOnUse" x="17" y="7" width="5" height="19">
<path d="M21.9741 22.3438C21.9741 23.875 19.264 25.1875 17.5508 25.1875C17.5508 20.1652 17.5508 15.1473 17.5508 10.125C17.5508 8.59375 20.2608 7.28125 21.9741 7.28125C21.9741 12.2991 21.9741 17.3214 21.9741 22.3438Z" fill="white"/>
</mask>
<g mask="url(#mask0_8123_9342)">
<path d="M21.979 7.28125H17.5557V25.1875H21.979V7.28125Z" fill="#55AE47"/>
</g>
<path d="M24.3594 6.91521V33.7902C24.3594 38.6518 20.4301 42.5983 15.5796 42.5983C11.846 42.5983 8.65981 40.259 7.39156 36.9643C6.60836 34.5358 6.85756 32.6072 7.03111 31.7858C7.54731 29.5625 8.90011 27.6652 10.7424 26.442C12.0196 25.5938 13.537 25.0715 15.1657 24.9956V12.6563C13.4525 12.6563 10.7424 14.8438 10.7424 17.4018V21.4643C5.84741 23.4018 2.38086 28.192 2.38086 33.7947C2.38086 41.1072 8.29046 47.0358 15.5796 47.0358C22.8687 47.0358 28.7827 41.1072 28.7827 33.7947V2.16968C27.0739 2.16968 24.3594 4.35718 24.3594 6.91521Z" fill="#3876BC"/>
<path d="M47.6327 42.2679V34.9197C47.6638 27.9956 42.2215 27.9956 41.9634 27.9956C38.7905 27.8974 36.3564 30.9554 36.5522 34.1384C36.6812 37.0983 38.9151 39.3081 41.9945 39.5982C43.8724 39.6965 46.3689 38.2009 46.5958 37.9732V41.3527C46.3689 41.4509 43.4541 42.7813 41.3804 42.5893C36.877 42.1027 33.0233 38.3661 33.2503 33.4866C33.4772 28.8081 37.0105 24.7768 42.2259 25.0357C47.6371 25.1965 50.9079 29.3929 50.9079 33.8125V42.2634H47.6327V42.2679Z" fill="#3D3D3D"/>
<path d="M62.0149 42.2678C59.781 42.2678 57.8986 41.9731 56.5725 40.0892C55.7315 38.9821 55.3755 37.7499 55.3755 36.5133V20.9106H58.6818V25.1026H64.32V28.4821H58.7486V35.8615C58.7486 36.933 58.8153 37.4865 59.6564 38.2008C60.4974 38.9464 61.7301 38.8526 62.54 38.8526H64.4535V42.2633H62.0149V42.2678Z" fill="#3D3D3D"/>
<path d="M80.5804 42.2679V34.9197C80.6116 27.9956 75.1692 27.9956 74.9111 27.9956C71.7383 27.8974 69.3041 30.9554 69.4999 34.1384C69.629 37.0983 71.8629 39.3081 74.9423 39.5982C76.8202 39.6965 79.3166 38.2009 79.5436 37.9732V41.3527C79.3166 41.4509 76.4019 42.7813 74.3282 42.5893C69.8248 42.1027 65.9711 38.3661 66.198 33.4866C66.425 28.8081 69.9583 24.7768 75.1737 25.0357C80.5849 25.1965 83.8556 29.3929 83.8556 33.8125V42.2634H80.5804V42.2679Z" fill="#3D3D3D"/>
<path d="M103.778 42.6563C101.932 42.625 99.9246 41.6474 99.3416 40.9643L98.7898 40.3125L98.238 40.8661C97.4281 41.6474 95.3544 42.6518 93.5744 42.6206C89.783 42.5893 87.291 39.5982 87.291 35.634V25.1072H90.6597V36.4822C90.6597 38.4643 92.8936 39.7322 93.8681 39.7009C95.1987 39.634 97.0766 38.1429 97.0766 36.3215V25.1072H100.476V36.192C100.476 38.0134 101.936 39.6697 103.814 39.6027C105.629 39.5357 106.893 37.9107 106.893 36.0938V25.1072H110.262V34.9866C110.257 39.375 107.663 42.7857 103.778 42.6563Z" fill="#3D3D3D"/>
<path d="M121.436 42.5268C116.706 42.4955 112.816 38.6607 112.687 33.8795C112.589 28.9732 116.706 24.875 121.596 24.875C126.358 24.9062 130.309 28.7098 130.407 33.4866C130.505 38.433 126.358 42.5893 121.436 42.5268ZM121.756 27.8348C118.584 27.7054 115.989 30.4687 115.989 33.683C115.989 36.8036 118.388 39.4687 121.463 39.5C124.671 39.5312 127.199 36.7054 127.163 33.5179C127.105 30.5 124.805 27.9018 121.756 27.8348Z" fill="#3D3D3D"/>
<path d="M138.248 29.8838C137.309 31.1204 137.211 32.0624 137.211 33.6874V42.2678H133.713V25.107H136.953V26.8303C137.407 26.3437 137.861 26.049 138.573 25.7231C140.095 24.9106 143.334 25.107 143.334 25.107V28.4865C141.39 28.4865 139.543 28.1919 138.248 29.8838Z" fill="#3D3D3D"/>
<path d="M157.588 29.8482C157.2 30.5 156.876 30.8571 156.324 31.3437C156.03 31.6696 155.839 31.7991 155.545 31.9955C157.036 32.3214 157.846 33.0045 158.331 33.5536C159.043 34.3348 159.465 35.7321 159.465 37.2589V42.2634H156.159V38.0402C156.159 37.067 156.19 36.1875 155.509 35.4732C154.602 34.5937 153.632 34.5625 152.337 34.5625H149.582V42.2321H146.018V17.5625H149.484V31.3125H150.846C151.981 31.3125 152.532 30.9241 153.049 30.3393C153.89 29.4598 154.539 28.5179 154.7 28.192L156.644 25.1027H160.533L157.588 29.8482Z" fill="#3D3D3D"/>
<path d="M166.078 42.2679C165.01 42.2679 163.293 42.1697 162.839 40.5759C162.643 39.8304 162.483 39.1116 163.551 37.9107L171.587 28.4866H163.261V25.1072H172.397C174.44 25.1072 174.987 25.5313 175.477 26.7634C175.962 27.9018 175.281 28.9107 174.44 29.9152L166.857 38.625L166.924 38.8527H175.833V42.2634H166.078V42.2679Z" fill="#3D3D3D"/>
</svg>
