<svg width="21" height="18" viewBox="0 0 21 18" fill="none" xmlns="http://www.w3.org/2000/svg">
<path d="M14.9917 9C14.9917 11.4441 14.4407 13.642 13.565 15.2183C12.6836 16.8047 11.514 17.7 10.2917 17.7C9.0694 17.7 7.89974 16.8047 7.0184 15.2183C6.1427 13.642 5.59169 11.4441 5.59169 9C5.59169 6.55589 6.1427 4.35799 7.0184 2.78173C7.89974 1.19531 9.0694 0.3 10.2917 0.3C11.514 0.3 12.6836 1.19531 13.565 2.78173C14.4407 4.35799 14.9917 6.55589 14.9917 9Z" stroke="url(#paint0_linear_5151_25201)" stroke-width="0.6"/>
<path d="M12.6836 13.046C10.5795 14.2897 8.40709 14.9338 6.60457 14.9821C4.79042 15.0306 3.4245 14.4793 2.80253 13.4271C2.18056 12.3749 2.3561 10.9124 3.27329 9.34643C4.18461 7.7905 5.79628 6.19774 7.9003 4.95403C10.0043 3.71033 12.1768 3.06625 13.9793 3.01801C15.7934 2.96945 17.1594 3.52076 17.7813 4.57297C18.4033 5.62518 18.2278 7.08766 17.3106 8.65363C16.3993 10.2096 14.7876 11.8023 12.6836 13.046Z" stroke="url(#paint1_linear_5151_25201)" stroke-width="0.6"/>
<circle cx="17.5" cy="4.5" r="1.2" fill="white" stroke="url(#paint2_linear_5151_25201)" stroke-width="0.6"/>
<circle cx="2.5" cy="13.5" r="1.2" fill="white" stroke="url(#paint3_linear_5151_25201)" stroke-width="0.6"/>
<path d="M7.9003 13.046C10.0043 14.2897 12.1768 14.9338 13.9793 14.9821C15.7934 15.0306 17.1594 14.4793 17.7813 13.4271C18.4033 12.3749 18.2278 10.9124 17.3106 9.34643C16.3993 7.7905 14.7876 6.19774 12.6836 4.95403C10.5795 3.71033 8.40709 3.06625 6.60457 3.01801C4.79042 2.96945 3.4245 3.52076 2.80253 4.57297C2.18056 5.62518 2.3561 7.08766 3.27329 8.65363C4.18461 10.2096 5.79628 11.8023 7.9003 13.046Z" stroke="url(#paint4_linear_5151_25201)" stroke-width="0.6"/>
<circle cx="17.5" cy="13.5" r="1.2" fill="white" stroke="url(#paint5_linear_5151_25201)" stroke-width="0.6"/>
<path d="M3.7 4.5C3.7 5.16274 3.16274 5.7 2.5 5.7C1.83726 5.7 1.3 5.16274 1.3 4.5C1.3 3.83726 1.83726 3.3 2.5 3.3C3.16274 3.3 3.7 3.83726 3.7 4.5Z" fill="white" stroke="url(#paint6_linear_5151_25201)" stroke-width="0.6"/>
<defs>
<linearGradient id="paint0_linear_5151_25201" x1="10.2917" y1="0" x2="10.2917" y2="18" gradientUnits="userSpaceOnUse">
<stop stop-color="#9BC3FF"/>
<stop offset="1" stop-color="#3C97F3"/>
</linearGradient>
<linearGradient id="paint1_linear_5151_25201" x1="18.0396" y1="4.42031" x2="2.54427" y2="13.5797" gradientUnits="userSpaceOnUse">
<stop stop-color="#9BC3FF"/>
<stop offset="1" stop-color="#3C97F3"/>
</linearGradient>
<linearGradient id="paint2_linear_5151_25201" x1="17.5" y1="3" x2="17.5" y2="6" gradientUnits="userSpaceOnUse">
<stop stop-color="#9BC3FF"/>
<stop offset="1" stop-color="#3C97F3"/>
</linearGradient>
<linearGradient id="paint3_linear_5151_25201" x1="2.5" y1="12" x2="2.5" y2="15" gradientUnits="userSpaceOnUse">
<stop stop-color="#9BC3FF"/>
<stop offset="1" stop-color="#3C97F3"/>
</linearGradient>
<linearGradient id="paint4_linear_5151_25201" x1="2.54427" y1="4.42031" x2="18.0396" y2="13.5797" gradientUnits="userSpaceOnUse">
<stop stop-color="#9BC3FF"/>
<stop offset="1" stop-color="#3C97F3"/>
</linearGradient>
<linearGradient id="paint5_linear_5151_25201" x1="17.5" y1="12" x2="17.5" y2="15" gradientUnits="userSpaceOnUse">
<stop stop-color="#9BC3FF"/>
<stop offset="1" stop-color="#3C97F3"/>
</linearGradient>
<linearGradient id="paint6_linear_5151_25201" x1="2.5" y1="3" x2="2.5" y2="6" gradientUnits="userSpaceOnUse">
<stop stop-color="#9BC3FF"/>
<stop offset="1" stop-color="#3C97F3"/>
</linearGradient>
</defs>
</svg>
