<svg width="16" height="16" viewBox="0 0 16 16" fill="none" xmlns="http://www.w3.org/2000/svg">
<path fill-rule="evenodd" clip-rule="evenodd" d="M8 1C4.13401 1 1 4.13401 1 8C1 11.866 4.13401 15 8 15C11.866 15 15 11.866 15 8C15 4.13401 11.866 1 8 1ZM0 8C0 3.58172 3.58172 0 8 0C12.4183 0 16 3.58172 16 8C16 12.4183 12.4183 16 8 16C3.58172 16 0 12.4183 0 8ZM7 4C7 3.44772 7.44772 3 8 3C8.55229 3 9 3.44772 9 4C9 4.55228 8.55229 5 8 5C7.44772 5 7 4.55228 7 4ZM7.5 8H6.5V7H8.5V11.5H10V12.5H6V11.5H7.5V8Z" fill="#2F3744"/>
</svg>
